<?xml version="1.0" encoding="UTF-8"?>
<svg width="103.92mm" height="160mm" version="1.1" viewBox="0 0 103.92 160" xmlns="http://www.w3.org/2000/svg" xmlns:cc="http://creativecommons.org/ns#" xmlns:dc="http://purl.org/dc/elements/1.1/" xmlns:rdf="http://www.w3.org/1999/02/22-rdf-syntax-ns#" xmlns:xlink="http://www.w3.org/1999/xlink">
 <metadata>
  <rdf:RDF>
   <cc:Work rdf:about="">
    <dc:format>image/svg+xml</dc:format>
    <dc:type rdf:resource="http://purl.org/dc/dcmitype/StillImage"/>
    <dc:title/>
   </cc:Work>
  </rdf:RDF>
 </metadata>
 <g transform="translate(-25.981 -17)">
  <path d="m25.981 47 51.962-30 51.962 30v130h-103.92z" fill="#001428"/>
  <path transform="scale(.26458)" d="m294.59 102.05-163.66 94.488v188.98l163.66 94.488 130.93-75.59v37.795l-130.93 75.59-163.66-94.488v37.795l163.66 94.488 163.66-94.488v-264.57zm0 37.795 130.93 75.592v151.18l-130.93 75.592-130.93-75.592v-151.18zm0 75.592 49.096 28.346-114.56 66.143v-56.693zm98.194 94.488-98.194 56.692-49.098-28.346 147.29-85.039v-18.898l-98.193-56.691-98.195 56.691v113.39l98.195 56.693 98.193-56.693z" fill="#00c2ec"/>
  <path d="m34.641 152h86.603" fill="none" stroke="#00c2ec" stroke-width="2"/>
  <g fill="#00c2ec" stroke-width=".26458" aria-label="CORE">
   <path d="m60.542 172.15q0.82507 0 1.63-0.20124 0.80495-0.20123 1.4489-0.70432 0.66408-0.52322 1.0062-1.2879 0.3421-0.78483 0.3421-1.6099h-2.274q0 0.52322-0.32198 0.96594-0.30186 0.44272-0.80495 0.62384-0.50309 0.16098-1.0263 0.16098-0.58359 0-1.1471-0.24148-0.54334-0.26161-0.80495-0.80495-0.24148-0.56346-0.24148-1.147v-6.6207q0-0.58358 0.24148-1.1269 0.26161-0.56347 0.80495-0.80495 0.56346-0.26161 1.1471-0.26161 0.52322 0 1.0263 0.16099 0.50309 0.16099 0.80495 0.62384 0.32198 0.44272 0.32198 0.96593h2.274q0-0.82507-0.3421-1.5898-0.3421-0.78482-1.0062-1.308-0.64396-0.52322-1.4489-0.70433-0.80495-0.20124-1.63-0.20124-0.70433 0-1.4087 0.14087-0.68421 0.14087-1.2879 0.52322-0.60371 0.36222-1.0263 0.94581-0.40247 0.56346-0.58359 1.2477-0.16099 0.6842-0.16099 1.3885v6.6207q0 0.70433 0.16099 1.3885 0.18111 0.6842 0.58359 1.2678 0.4226 0.56346 1.0263 0.94581 0.60371 0.36223 1.2879 0.5031 0.70433 0.14086 1.4087 0.14086z"/>
   <path d="m72.174 172.15q0.70433 0 1.3885-0.14086 0.70433-0.14087 1.308-0.5031 0.62384-0.38235 1.0464-0.94581 0.4226-0.58359 0.58359-1.2678 0.18111-0.68421 0.18111-1.3885v-6.6207q0-0.70433-0.18111-1.3885-0.16099-0.70433-0.58359-1.2678-0.4226-0.58359-1.0464-0.94582-0.60371-0.36222-1.308-0.50309-0.68421-0.14087-1.3885-0.14087-0.70433 0-1.4087 0.14087-0.6842 0.14087-1.308 0.50309-0.60371 0.36223-1.0263 0.94582-0.4226 0.56346-0.60371 1.2678-0.16099 0.6842-0.16099 1.3885v6.6207q0 0.70433 0.16099 1.3885 0.18111 0.6842 0.60371 1.2678 0.4226 0.56346 1.0263 0.94581 0.62384 0.36223 1.308 0.5031 0.70433 0.14086 1.4087 0.14086zm0-2.0526q-0.44272 0-0.88544-0.12074-0.4226-0.14086-0.74458-0.44272-0.32198-0.32198-0.46284-0.74458-0.14087-0.44272-0.14087-0.88544v-6.6207q0-0.44272 0.14087-0.86531 0.14087-0.44273 0.46284-0.76471 0.32198-0.32197 0.74458-0.44272 0.44272-0.12074 0.88544-0.12074 0.44272 0 0.86532 0.12074 0.44272 0.12075 0.7647 0.44272 0.3421 0.32198 0.46284 0.76471 0.14087 0.42259 0.14087 0.86531v6.6207q0 0.44272-0.14087 0.88544-0.12074 0.4226-0.46284 0.74458-0.32198 0.30186-0.7647 0.44272-0.4226 0.12074-0.86532 0.12074z"/>
   <path d="m79.418 171.98h2.274v-5.695h1.1471l3.4009 5.695h2.435l-3.4412-5.8158q0.70433-0.16099 1.3282-0.56346 0.62383-0.4226 1.0062-1.0464 0.40247-0.64396 0.54334-1.3684 0.16099-0.72446 0.16099-1.4489 0-0.70433-0.14087-1.4087t-0.50309-1.308q-0.36223-0.62383-0.94581-1.0464-0.56346-0.44272-1.2678-0.60371-0.68421-0.18112-1.3885-0.18112h-4.6083zm4.6083-7.7476h-2.3343v-4.9907h2.3343q0.44272 0 0.86532 0.20124 0.4226 0.18111 0.66408 0.56346 0.26161 0.38235 0.3421 0.82507 0.10062 0.44272 0.10062 0.90557 0 0.44272-0.10062 0.88544-0.08049 0.44272-0.3421 0.8452-0.24148 0.38235-0.66408 0.58358-0.4226 0.18112-0.86532 0.18112z"/>
   <path d="m91.734 171.98h7.969v-2.0526h-5.695v-4.7693h4.387v-2.0526h-4.387v-3.8638h5.695v-2.0526h-7.969z"/>
  </g>
 </g>
</svg>
